<svg width="183" height="23" viewBox="0 0 183 23" fill="none" xmlns="http://www.w3.org/2000/svg">
<path d="M5.144 22.416C4.184 22.416 3.27733 22.2987 2.424 22.064C1.592 21.8507 0.824 21.5733 0.12 21.232V16.496C0.824 17.008 1.47467 17.4347 2.072 17.776C2.66933 18.096 3.27733 18.256 3.896 18.256C4.81333 18.256 5.528 18.032 6.04 17.584C6.57333 17.1147 6.84 16.3467 6.84 15.28V0.655998H12.024V15.504C12.024 16.848 11.8213 17.968 11.416 18.864C11.032 19.7387 10.4987 20.4427 9.816 20.976C9.15467 21.488 8.41867 21.8507 7.608 22.064C6.79733 22.2987 5.976 22.416 5.144 22.416ZM16.5533 22V0.655998H31.1772V4.656H21.7373V9.296H29.9293V13.328H21.7373V18H31.1772V22H16.5533ZM35.522 22V0.655998H50.146V4.656H40.706V9.296H48.898V13.328H40.706V18H50.146V22H35.522ZM61.6588 22.416C60.0374 22.416 58.6294 22.2987 57.4348 22.064C56.2614 21.8507 55.1521 21.488 54.1068 20.976V16.048C55.0881 16.8373 56.1974 17.4347 57.4348 17.84C58.6721 18.2453 59.8561 18.448 60.9868 18.448C61.9254 18.448 62.6614 18.2667 63.1948 17.904C63.7281 17.5413 63.9948 16.9653 63.9948 16.176C63.9948 15.6 63.7494 15.1413 63.2588 14.8C62.7894 14.4587 62.1494 14.1493 61.3388 13.872C60.5494 13.5947 59.6748 13.2853 58.7148 12.944C57.8828 12.6667 57.0828 12.304 56.3148 11.856C55.5681 11.408 54.9494 10.8 54.4588 10.032C53.9894 9.264 53.7548 8.24 53.7548 6.96C53.7548 5.78667 54.0428 4.688 54.6188 3.664C55.1948 2.61867 56.0908 1.776 57.3068 1.136C58.5228 0.495999 60.0801 0.175999 61.9788 0.175999C63.2801 0.175999 64.3788 0.293332 65.2748 0.528C66.1921 0.762666 67.1414 1.11467 68.1228 1.584V6.544C67.3761 5.968 66.5121 5.44533 65.5308 4.976C64.5708 4.50667 63.5574 4.24 62.4908 4.176C61.5094 4.13333 60.6881 4.29333 60.0268 4.656C59.3654 5.01867 59.0348 5.584 59.0348 6.352C59.0348 6.94933 59.2161 7.41867 59.5788 7.76C59.9414 8.10133 60.4321 8.38933 61.0508 8.624C61.6908 8.83733 62.4161 9.072 63.2268 9.328C64.3788 9.66933 65.4134 10.0747 66.3308 10.544C67.2481 11.0133 67.9734 11.6427 68.5068 12.432C69.0401 13.2213 69.3068 14.256 69.3068 15.536C69.3068 16.8373 69.0081 18.0107 68.4108 19.056C67.8134 20.08 66.9388 20.9013 65.7868 21.52C64.6561 22.1173 63.2801 22.416 61.6588 22.416ZM82.7835 22.64C79.4982 22.64 77.0342 21.9467 75.3915 20.56C73.7702 19.1733 72.9595 16.9973 72.9595 14.032V0.655998H78.3675V13.808C78.3675 15.4507 78.6982 16.6667 79.3595 17.456C80.0208 18.2453 81.0768 18.64 82.5275 18.64C83.8502 18.64 84.8742 18.2453 85.5995 17.456C86.3462 16.6667 86.7195 15.4507 86.7195 13.808V0.655998H91.6475V14.032C91.6475 16.016 91.2635 17.648 90.4955 18.928C89.7488 20.1867 88.7035 21.1253 87.3595 21.744C86.0368 22.3413 84.5115 22.64 82.7835 22.64ZM96.1783 22V0.655998H100.594L110.034 13.36V0.655998H114.802V22H110.898L100.946 8.976V22H96.1783ZM128.178 22V0.655998H133.362V9.584L139.89 0.655998H146.418L138.418 9.68L147.09 22H140.594L134.834 13.68L133.362 15.312V22H128.178ZM149.928 22V0.655998H155.112V22H149.928ZM159.647 22V0.655998H164.927L170.911 8.976L177.023 0.655998H182.175V22H176.991V7.536L170.719 15.92L164.607 7.568V22H159.647Z" fill="black"/>
</svg>
